<?xml version="1.0" standalone="no"?><!DOCTYPE svg PUBLIC "-//W3C//DTD SVG 1.1//EN" "http://www.w3.org/Graphics/SVG/1.1/DTD/svg11.dtd"><svg width="100%" height="100%" viewBox="0 0 32 32" version="1.1" xmlns="http://www.w3.org/2000/svg" xmlns:xlink="http://www.w3.org/1999/xlink" xml:space="preserve" style="fill-rule:evenodd;clip-rule:evenodd;stroke-linejoin:round;stroke-miterlimit:1.41421;"><g id="Rahmen"><path d="M32,6c0,-3.311 -2.689,-6 -6,-6l-20,0c-3.311,0 -6,2.689 -6,6l0,20c0,3.311 2.689,6 6,6l20,0c3.311,0 6,-2.689 6,-6l0,-20Z" style="fill:#fff;"/><path d="M26.077,0l0.078,0.002l0.077,0.002l0.077,0.004l0.076,0.004l0.076,0.006l0.076,0.006l0.076,0.007l0.076,0.008l0.075,0.009l0.075,0.01l0.074,0.011l0.075,0.012l0.074,0.013l0.073,0.013l0.074,0.015l0.073,0.015l0.072,0.017l0.073,0.017l0.072,0.018l0.071,0.019l0.072,0.02l0.071,0.02l0.07,0.022l0.071,0.022l0.07,0.023l0.069,0.024l0.069,0.025l0.069,0.026l0.068,0.026l0.068,0.028l0.068,0.028l0.067,0.029l0.066,0.029l0.066,0.031l0.066,0.031l0.066,0.032l0.065,0.033l0.064,0.033l0.064,0.035l0.063,0.035l0.064,0.035l0.062,0.037l0.062,0.037l0.062,0.038l0.061,0.039l0.061,0.039l0.06,0.04l0.059,0.041l0.059,0.042l0.059,0.042l0.058,0.043l0.057,0.043l0.057,0.044l0.057,0.045l0.056,0.046l0.055,0.046l0.055,0.047l0.054,0.047l0.053,0.048l0.053,0.049l0.053,0.05l0.052,0.05l0.051,0.05l0.05,0.051l0.05,0.052l0.05,0.053l0.049,0.053l0.048,0.053l0.047,0.054l0.047,0.055l0.046,0.055l0.046,0.056l0.045,0.057l0.044,0.057l0.043,0.057l0.043,0.058l0.042,0.059l0.042,0.059l0.041,0.059l0.04,0.06l0.039,0.061l0.039,0.061l0.038,0.062l0.037,0.062l0.037,0.062l0.035,0.064l0.035,0.063l0.035,0.064l0.033,0.064l0.033,0.065l0.032,0.066l0.031,0.066l0.031,0.066l0.029,0.066l0.029,0.067l0.028,0.068l0.028,0.068l0.026,0.068l0.026,0.069l0.025,0.069l0.024,0.069l0.023,0.07l0.022,0.071l0.022,0.07l0.02,0.071l0.02,0.072l0.019,0.071l0.018,0.072l0.017,0.073l0.017,0.072l0.015,0.073l0.015,0.074l0.013,0.073l0.013,0.074l0.012,0.075l0.011,0.074l0.01,0.075l0.009,0.075l0.008,0.076l0.007,0.076l0.006,0.076l0.006,0.076l0.004,0.076l0.004,0.077l0.002,0.077l0.002,0.078l0,0.077l0,20l0,0.077l-0.002,0.078l-0.002,0.077l-0.004,0.077l-0.004,0.076l-0.006,0.076l-0.006,0.076l-0.007,0.076l-0.008,0.076l-0.009,0.075l-0.01,0.075l-0.011,0.074l-0.012,0.075l-0.013,0.074l-0.013,0.073l-0.015,0.074l-0.015,0.073l-0.017,0.072l-0.017,0.073l-0.018,0.072l-0.019,0.071l-0.02,0.072l-0.02,0.071l-0.022,0.07l-0.022,0.071l-0.023,0.07l-0.024,0.069l-0.025,0.069l-0.026,0.069l-0.026,0.068l-0.028,0.068l-0.028,0.068l-0.029,0.067l-0.029,0.066l-0.031,0.066l-0.031,0.066l-0.032,0.066l-0.033,0.065l-0.033,0.064l-0.035,0.064l-0.035,0.063l-0.035,0.064l-0.037,0.062l-0.037,0.062l-0.038,0.062l-0.039,0.061l-0.039,0.061l-0.04,0.06l-0.041,0.059l-0.042,0.059l-0.042,0.059l-0.043,0.058l-0.043,0.057l-0.044,0.057l-0.045,0.057l-0.046,0.056l-0.046,0.055l-0.047,0.055l-0.047,0.054l-0.048,0.053l-0.049,0.053l-0.05,0.053l-0.05,0.052l-0.05,0.051l-0.051,0.05l-0.052,0.05l-0.053,0.05l-0.053,0.049l-0.053,0.048l-0.054,0.047l-0.055,0.047l-0.055,0.046l-0.056,0.046l-0.057,0.045l-0.057,0.044l-0.057,0.043l-0.058,0.043l-0.059,0.042l-0.059,0.042l-0.059,0.041l-0.06,0.04l-0.061,0.039l-0.061,0.039l-0.062,0.038l-0.062,0.037l-0.062,0.037l-0.064,0.035l-0.063,0.035l-0.064,0.035l-0.064,0.033l-0.065,0.033l-0.066,0.032l-0.066,0.031l-0.066,0.031l-0.066,0.029l-0.067,0.029l-0.068,0.028l-0.068,0.028l-0.068,0.026l-0.069,0.026l-0.069,0.025l-0.069,0.024l-0.07,0.023l-0.071,0.022l-0.07,0.022l-0.071,0.02l-0.072,0.02l-0.071,0.019l-0.072,0.018l-0.073,0.017l-0.072,0.017l-0.073,0.015l-0.074,0.015l-0.073,0.013l-0.074,0.013l-0.075,0.012l-0.074,0.011l-0.075,0.01l-0.075,0.009l-0.076,0.008l-0.076,0.007l-0.076,0.006l-0.076,0.006l-0.076,0.004l-0.077,0.004l-0.077,0.002l-0.078,0.002l-0.077,0l-20,0l-0.077,0l-0.078,-0.002l-0.077,-0.002l-0.077,-0.004l-0.076,-0.004l-0.076,-0.006l-0.076,-0.006l-0.076,-0.007l-0.076,-0.008l-0.075,-0.009l-0.075,-0.01l-0.074,-0.011l-0.075,-0.012l-0.074,-0.013l-0.073,-0.013l-0.074,-0.015l-0.073,-0.015l-0.072,-0.017l-0.073,-0.017l-0.072,-0.018l-0.071,-0.019l-0.072,-0.02l-0.071,-0.02l-0.07,-0.022l-0.071,-0.022l-0.07,-0.023l-0.069,-0.024l-0.069,-0.025l-0.069,-0.026l-0.068,-0.026l-0.068,-0.028l-0.068,-0.028l-0.067,-0.029l-0.066,-0.029l-0.066,-0.031l-0.066,-0.031l-0.066,-0.032l-0.065,-0.033l-0.064,-0.033l-0.064,-0.035l-0.063,-0.035l-0.064,-0.035l-0.062,-0.037l-0.062,-0.037l-0.062,-0.038l-0.061,-0.039l-0.061,-0.039l-0.06,-0.04l-0.059,-0.041l-0.059,-0.042l-0.059,-0.042l-0.058,-0.043l-0.057,-0.043l-0.057,-0.044l-0.057,-0.045l-0.056,-0.046l-0.055,-0.046l-0.055,-0.047l-0.054,-0.047l-0.053,-0.048l-0.053,-0.049l-0.053,-0.05l-0.052,-0.05l-0.051,-0.05l-0.05,-0.051l-0.05,-0.052l-0.05,-0.053l-0.049,-0.053l-0.048,-0.053l-0.047,-0.054l-0.047,-0.055l-0.046,-0.055l-0.046,-0.056l-0.045,-0.057l-0.044,-0.057l-0.043,-0.057l-0.043,-0.058l-0.042,-0.059l-0.042,-0.059l-0.041,-0.059l-0.04,-0.06l-0.039,-0.061l-0.039,-0.061l-0.038,-0.062l-0.037,-0.062l-0.037,-0.062l-0.035,-0.064l-0.035,-0.063l-0.035,-0.064l-0.033,-0.064l-0.033,-0.065l-0.032,-0.066l-0.031,-0.066l-0.031,-0.066l-0.029,-0.066l-0.029,-0.067l-0.028,-0.068l-0.028,-0.068l-0.026,-0.068l-0.026,-0.069l-0.025,-0.069l-0.024,-0.069l-0.023,-0.07l-0.022,-0.071l-0.022,-0.07l-0.02,-0.071l-0.02,-0.072l-0.019,-0.071l-0.018,-0.072l-0.017,-0.073l-0.017,-0.072l-0.015,-0.073l-0.015,-0.074l-0.013,-0.073l-0.013,-0.074l-0.012,-0.075l-0.011,-0.074l-0.01,-0.075l-0.009,-0.075l-0.008,-0.076l-0.007,-0.076l-0.006,-0.076l-0.006,-0.076l-0.004,-0.076l-0.004,-0.077l-0.002,-0.077l-0.002,-0.078l0,-0.077l0,-20l0,-0.077l0.002,-0.078l0.002,-0.077l0.004,-0.077l0.004,-0.076l0.006,-0.076l0.006,-0.076l0.007,-0.076l0.008,-0.076l0.009,-0.075l0.01,-0.075l0.011,-0.074l0.012,-0.075l0.013,-0.074l0.013,-0.073l0.015,-0.074l0.015,-0.073l0.017,-0.072l0.017,-0.073l0.018,-0.072l0.019,-0.071l0.02,-0.072l0.02,-0.071l0.022,-0.07l0.022,-0.071l0.023,-0.07l0.024,-0.069l0.025,-0.069l0.026,-0.069l0.026,-0.068l0.028,-0.068l0.028,-0.068l0.029,-0.067l0.029,-0.066l0.031,-0.066l0.031,-0.066l0.032,-0.066l0.033,-0.065l0.033,-0.064l0.035,-0.064l0.035,-0.063l0.035,-0.064l0.037,-0.062l0.037,-0.062l0.038,-0.062l0.039,-0.061l0.039,-0.061l0.04,-0.06l0.041,-0.059l0.042,-0.059l0.042,-0.059l0.043,-0.058l0.043,-0.057l0.044,-0.057l0.045,-0.057l0.046,-0.056l0.046,-0.055l0.047,-0.055l0.047,-0.054l0.048,-0.053l0.049,-0.053l0.05,-0.053l0.05,-0.052l0.05,-0.051l0.051,-0.05l0.052,-0.05l0.053,-0.05l0.053,-0.049l0.053,-0.048l0.054,-0.047l0.055,-0.047l0.055,-0.046l0.056,-0.046l0.057,-0.045l0.057,-0.044l0.057,-0.043l0.058,-0.043l0.059,-0.042l0.059,-0.042l0.059,-0.041l0.06,-0.04l0.061,-0.039l0.061,-0.039l0.062,-0.038l0.062,-0.037l0.062,-0.037l0.064,-0.035l0.063,-0.035l0.064,-0.035l0.064,-0.033l0.065,-0.033l0.066,-0.032l0.066,-0.031l0.066,-0.031l0.066,-0.029l0.067,-0.029l0.068,-0.028l0.068,-0.028l0.068,-0.026l0.069,-0.026l0.069,-0.025l0.069,-0.024l0.07,-0.023l0.071,-0.022l0.07,-0.022l0.071,-0.02l0.072,-0.02l0.071,-0.019l0.072,-0.018l0.073,-0.017l0.072,-0.017l0.073,-0.015l0.074,-0.015l0.073,-0.013l0.074,-0.013l0.075,-0.012l0.074,-0.011l0.075,-0.01l0.075,-0.009l0.076,-0.008l0.076,-0.007l0.076,-0.006l0.076,-0.006l0.076,-0.004l0.077,-0.004l0.077,-0.002l0.078,-0.002l0.077,0l20,0l0.077,0ZM6.001,0.4l-0.073,0l-0.073,0.002l-0.072,0.002l-0.071,0.003l-0.072,0.004l-0.071,0.005l-0.071,0.006l-0.071,0.007l-0.07,0.008l-0.07,0.008l-0.07,0.009l-0.07,0.011l-0.069,0.011l-0.069,0.012l-0.069,0.012l-0.068,0.014l-0.068,0.014l-0.068,0.015l-0.068,0.017l-0.067,0.016l-0.067,0.018l-0.066,0.019l-0.067,0.019l-0.065,0.02l-0.066,0.021l-0.065,0.021l-0.065,0.023l-0.064,0.023l-0.065,0.024l-0.063,0.025l-0.064,0.025l-0.063,0.026l-0.062,0.027l-0.062,0.028l-0.062,0.028l-0.062,0.029l-0.061,0.03l-0.06,0.031l-0.06,0.031l-0.06,0.032l-0.059,0.033l-0.059,0.033l-0.058,0.034l-0.058,0.035l-0.058,0.035l-0.057,0.037l-0.057,0.036l-0.056,0.038l-0.055,0.038l-0.055,0.039l-0.055,0.039l-0.054,0.04l-0.054,0.041l-0.053,0.041l-0.053,0.042l-0.052,0.042l-0.052,0.043l-0.051,0.044l-0.05,0.045l-0.05,0.044l-0.05,0.046l-0.049,0.046l-0.048,0.047l-0.048,0.047l-0.047,0.048l-0.047,0.048l-0.046,0.049l-0.046,0.05l-0.044,0.05l-0.045,0.05l-0.044,0.051l-0.043,0.052l-0.042,0.052l-0.042,0.053l-0.041,0.053l-0.041,0.054l-0.04,0.054l-0.039,0.055l-0.039,0.055l-0.038,0.055l-0.038,0.056l-0.036,0.057l-0.037,0.057l-0.035,0.058l-0.035,0.058l-0.034,0.058l-0.033,0.059l-0.033,0.059l-0.032,0.06l-0.031,0.06l-0.031,0.06l-0.03,0.061l-0.029,0.062l-0.028,0.062l-0.028,0.062l-0.027,0.062l-0.026,0.063l-0.025,0.064l-0.025,0.063l-0.024,0.065l-0.023,0.064l-0.023,0.065l-0.021,0.065l-0.021,0.066l-0.02,0.065l-0.019,0.067l-0.019,0.066l-0.018,0.067l-0.016,0.067l-0.017,0.068l-0.015,0.068l-0.014,0.068l-0.014,0.068l-0.012,0.069l-0.012,0.069l-0.011,0.069l-0.011,0.07l-0.009,0.07l-0.008,0.07l-0.008,0.07l-0.007,0.071l-0.006,0.071l-0.005,0.071l-0.004,0.072l-0.003,0.071l-0.002,0.072l-0.002,0.073l0,0.073l0,19.998l0,0.073l0.002,0.073l0.002,0.072l0.003,0.071l0.004,0.072l0.005,0.071l0.006,0.071l0.007,0.071l0.008,0.07l0.008,0.07l0.009,0.07l0.011,0.07l0.011,0.069l0.012,0.069l0.012,0.069l0.014,0.068l0.014,0.068l0.015,0.068l0.017,0.068l0.016,0.067l0.018,0.067l0.019,0.066l0.019,0.067l0.02,0.065l0.021,0.066l0.021,0.065l0.023,0.065l0.023,0.064l0.024,0.065l0.025,0.063l0.025,0.064l0.026,0.063l0.027,0.062l0.028,0.062l0.028,0.062l0.029,0.062l0.03,0.061l0.031,0.06l0.031,0.06l0.032,0.06l0.033,0.059l0.033,0.059l0.034,0.058l0.035,0.058l0.035,0.058l0.037,0.057l0.036,0.057l0.038,0.056l0.038,0.055l0.039,0.055l0.039,0.055l0.04,0.054l0.041,0.054l0.041,0.053l0.042,0.053l0.042,0.052l0.043,0.052l0.044,0.051l0.045,0.05l0.044,0.05l0.046,0.05l0.046,0.049l0.047,0.048l0.047,0.048l0.048,0.047l0.048,0.047l0.049,0.046l0.05,0.046l0.05,0.044l0.05,0.045l0.051,0.044l0.052,0.043l0.052,0.042l0.053,0.042l0.053,0.041l0.054,0.041l0.054,0.04l0.055,0.039l0.055,0.039l0.055,0.038l0.056,0.038l0.057,0.036l0.057,0.037l0.058,0.035l0.058,0.035l0.058,0.034l0.059,0.033l0.059,0.033l0.06,0.032l0.06,0.031l0.06,0.031l0.061,0.03l0.062,0.029l0.062,0.028l0.062,0.028l0.062,0.027l0.063,0.026l0.064,0.025l0.063,0.025l0.065,0.024l0.064,0.023l0.065,0.023l0.065,0.021l0.066,0.021l0.065,0.02l0.067,0.019l0.066,0.019l0.067,0.018l0.067,0.016l0.068,0.017l0.068,0.015l0.068,0.014l0.068,0.014l0.069,0.012l0.069,0.012l0.069,0.011l0.07,0.011l0.07,0.009l0.07,0.008l0.07,0.008l0.071,0.007l0.071,0.006l0.071,0.005l0.072,0.004l0.071,0.003l0.072,0.002l0.073,0.002l0.073,0l19.998,0l0.073,0l0.073,-0.002l0.072,-0.002l0.071,-0.003l0.072,-0.004l0.071,-0.005l0.071,-0.006l0.071,-0.007l0.07,-0.008l0.07,-0.008l0.07,-0.009l0.07,-0.011l0.069,-0.011l0.069,-0.012l0.069,-0.012l0.068,-0.014l0.068,-0.014l0.068,-0.015l0.068,-0.017l0.067,-0.016l0.067,-0.018l0.066,-0.019l0.067,-0.019l0.065,-0.02l0.066,-0.021l0.065,-0.021l0.065,-0.023l0.064,-0.023l0.065,-0.024l0.063,-0.025l0.064,-0.025l0.063,-0.026l0.062,-0.027l0.062,-0.028l0.062,-0.028l0.062,-0.029l0.061,-0.03l0.06,-0.031l0.06,-0.031l0.06,-0.032l0.059,-0.033l0.059,-0.033l0.058,-0.034l0.058,-0.035l0.058,-0.035l0.057,-0.037l0.057,-0.036l0.056,-0.038l0.055,-0.038l0.055,-0.039l0.055,-0.039l0.054,-0.04l0.054,-0.041l0.053,-0.041l0.053,-0.042l0.052,-0.042l0.052,-0.043l0.051,-0.044l0.05,-0.045l0.05,-0.044l0.05,-0.046l0.049,-0.046l0.048,-0.047l0.048,-0.047l0.047,-0.048l0.047,-0.048l0.046,-0.049l0.046,-0.05l0.044,-0.05l0.045,-0.05l0.044,-0.051l0.043,-0.052l0.042,-0.052l0.042,-0.053l0.041,-0.053l0.041,-0.054l0.04,-0.054l0.039,-0.055l0.039,-0.055l0.038,-0.055l0.038,-0.056l0.036,-0.057l0.037,-0.057l0.035,-0.058l0.035,-0.058l0.034,-0.058l0.033,-0.059l0.033,-0.059l0.032,-0.06l0.031,-0.06l0.031,-0.06l0.03,-0.061l0.029,-0.062l0.028,-0.062l0.028,-0.062l0.027,-0.062l0.026,-0.063l0.025,-0.064l0.025,-0.063l0.024,-0.065l0.023,-0.064l0.023,-0.065l0.021,-0.065l0.021,-0.066l0.02,-0.065l0.019,-0.067l0.019,-0.066l0.018,-0.067l0.016,-0.067l0.017,-0.068l0.015,-0.068l0.014,-0.068l0.014,-0.068l0.012,-0.069l0.012,-0.069l0.011,-0.069l0.011,-0.07l0.009,-0.07l0.008,-0.07l0.008,-0.07l0.007,-0.071l0.006,-0.071l0.005,-0.071l0.004,-0.072l0.003,-0.071l0.002,-0.072l0.002,-0.073l0,-0.073l0,-19.998l0,-0.073l-0.002,-0.073l-0.002,-0.072l-0.003,-0.071l-0.004,-0.072l-0.005,-0.071l-0.006,-0.071l-0.007,-0.071l-0.008,-0.07l-0.008,-0.07l-0.009,-0.07l-0.011,-0.07l-0.011,-0.069l-0.012,-0.069l-0.012,-0.069l-0.014,-0.068l-0.014,-0.068l-0.015,-0.068l-0.017,-0.068l-0.016,-0.067l-0.018,-0.067l-0.019,-0.066l-0.019,-0.067l-0.02,-0.065l-0.021,-0.066l-0.021,-0.065l-0.023,-0.065l-0.023,-0.064l-0.024,-0.065l-0.025,-0.063l-0.025,-0.064l-0.026,-0.063l-0.027,-0.062l-0.028,-0.062l-0.028,-0.062l-0.029,-0.062l-0.03,-0.061l-0.031,-0.06l-0.031,-0.06l-0.032,-0.06l-0.033,-0.059l-0.033,-0.059l-0.034,-0.058l-0.035,-0.058l-0.035,-0.058l-0.037,-0.057l-0.036,-0.057l-0.038,-0.056l-0.038,-0.055l-0.039,-0.055l-0.039,-0.055l-0.04,-0.054l-0.041,-0.054l-0.041,-0.053l-0.042,-0.053l-0.042,-0.052l-0.043,-0.052l-0.044,-0.051l-0.045,-0.05l-0.044,-0.05l-0.046,-0.05l-0.046,-0.049l-0.047,-0.048l-0.047,-0.048l-0.048,-0.047l-0.048,-0.047l-0.049,-0.046l-0.05,-0.046l-0.05,-0.044l-0.05,-0.045l-0.051,-0.044l-0.052,-0.043l-0.052,-0.042l-0.053,-0.042l-0.053,-0.041l-0.054,-0.041l-0.054,-0.04l-0.055,-0.039l-0.055,-0.039l-0.055,-0.038l-0.056,-0.038l-0.057,-0.036l-0.057,-0.037l-0.058,-0.035l-0.058,-0.035l-0.058,-0.034l-0.059,-0.033l-0.059,-0.033l-0.06,-0.032l-0.06,-0.031l-0.06,-0.031l-0.061,-0.03l-0.062,-0.029l-0.062,-0.028l-0.062,-0.028l-0.062,-0.027l-0.063,-0.026l-0.064,-0.025l-0.063,-0.025l-0.065,-0.024l-0.064,-0.023l-0.065,-0.023l-0.065,-0.021l-0.066,-0.021l-0.065,-0.02l-0.067,-0.019l-0.066,-0.019l-0.067,-0.018l-0.067,-0.016l-0.068,-0.017l-0.068,-0.015l-0.068,-0.014l-0.068,-0.014l-0.069,-0.012l-0.069,-0.012l-0.069,-0.011l-0.07,-0.011l-0.07,-0.009l-0.07,-0.008l-0.07,-0.008l-0.071,-0.007l-0.071,-0.006l-0.071,-0.005l-0.072,-0.004l-0.071,-0.003l-0.072,-0.002l-0.073,-0.002l-0.073,0l-19.998,0Z" style="fill:#ccc;"/></g><path id="Repository" d="M14,10l0,1.125l-2.5,0l0,10.125l10.125,0l0,-10.125l-3.625,0l0,-1.125l3.625,0c0.316,0.012 0.58,0.123 0.791,0.334c0.211,0.211 0.322,0.475 0.334,0.791l0,13.5c-0.012,0.316 -0.123,0.58 -0.334,0.791c-0.211,0.211 -0.475,0.322 -0.791,0.334l-5.625,0l0,2.25l-1.688,-1.688l-1.687,1.688l0,-2.25l-2.25,0c-0.316,-0.012 -0.58,-0.123 -0.791,-0.334c-0.211,-0.211 -0.322,-0.475 -0.334,-0.791l0,-13.5c0.012,-0.316 0.123,-0.58 0.334,-0.791c0.211,-0.211 0.475,-0.322 0.791,-0.334l3.625,0ZM21.625,22.375l-11.25,0l0,2.25l2.25,0l0,-1.125l3.375,0l0,1.125l5.625,0l0,-2.25ZM13.75,20.125l-1.125,0l0,-1.125l1.125,0l0,1.125ZM13.75,17.875l-1.125,0l0,-1.125l1.125,0l0,1.125ZM13.75,15.625l-1.125,0l0,-1.125l1.125,0l0,1.125ZM13.75,13.375l-1.125,0l0,-1.125l1.125,0l0,1.125Z" style="fill:#000;"/><path id="Pfeil Linie" d="M16,16l0,-11" style="fill:none;stroke-width:1px;stroke:#000;"/><path id="Pfeil Ende" d="M13,8l3,-3l3,3" style="fill:none;stroke-width:1px;stroke-linejoin:miter;stroke:#000;"/></svg>